<svg xmlns="http://www.w3.org/2000/svg" width="44.05" height="44.05"><path d="M0 0h44.05v44.05H0z" fill="none"/><path d="M40.676 10.381a15.388 15.388 0 01-4.409 1.208 7.7 7.7 0 003.378-4.248 15.34 15.34 0 01-4.875 1.863 7.676 7.676 0 00-13.079 7A21.794 21.794 0 015.869 8.181a7.687 7.687 0 002.376 10.252 7.65 7.65 0 01-3.476-.96v.1a7.681 7.681 0 006.156 7.527 7.727 7.727 0 01-3.467.132 7.681 7.681 0 007.171 5.332 15.407 15.407 0 01-11.364 3.174 21.713 21.713 0 0011.765 3.451c14.12 0 21.842-11.7 21.842-21.842 0-.33-.009-.664-.024-.991a15.594 15.594 0 003.83-3.975z" fill="#2b2b2b"/></svg>