<svg xmlns="http://www.w3.org/2000/svg" width="38" height="55"><path d="M8.247 36.039a.906.906 0 01.709-.891c1.048-.219 1.591-1.006 2.052-2.063a21.167 21.167 0 016.981-8.12c2.351-1.736 2.94-3.372 3.053-6 .064-1.526.3-2.737 1.964-3.079s2.429.409 3.049 2.237c.914 2.7.421 4.575-.742 7.091-.592 1.281-1.178 2.571-1.677 3.892-.284.747-.2 1.05-.063 1.284.385.691 1.572.517 4.558.441a18.759 18.759 0 014.392.2c2.15.414 2.75 1.059 2.907 1.242a4.185 4.185 0 01.856 2.988 10.559 10.559 0 01-1.01 2.842c1.781 2.924 1.738 3.894-.613 5.869 1.548 2.182 1.152 4.007-.942 5.6a1.256 1.256 0 00-.333.813c-.308 3.49-1.279 4.174-4.884 4.461-6.8.2-6.8.392-16.187-.61-.866-.092-2.257-.246-3.148-.345a.986.986 0 01-.864-.968c-.021-.995-.052-2.6-.054-3.536-.011-4.425-.005-8.849 0-13.344zm-1.88 18.087H.841a.842.842 0 01-.842-.842V35.961a.842.842 0 01.842-.842h5.526a.843.843 0 01.842.842v17.323a.843.843 0 01-.842.842zm26.686-40.835a.965.965 0 01-.49-.133.971.971 0 01-.346-1.328l3.976-6.784A.969.969 0 0137.52 4.7a.969.969 0 01.346 1.327l-3.977 6.785a.97.97 0 01-.836.479zm-22.667-.117a.97.97 0 01-.843-.487L5.637 5.86a.97.97 0 01.36-1.324.969.969 0 011.323.36l3.906 6.827a.97.97 0 01-.36 1.324.969.969 0 01-.48.127zm11.348-3.349h-.005a.969.969 0 01-.965-.974l.041-7.886a.97.97 0 01.97-.965h.005a.97.97 0 01.965.975l-.041 7.887a.97.97 0 01-.97.963z" fill="#f08f36"/></svg>