<svg xmlns="http://www.w3.org/2000/svg" width="44.05" height="44.05"><path d="M0 0h44.05v44.05H0z" fill="none"/><path d="M22.025 2.753c5.236 0 5.89.019 7.944.116a14.2 14.2 0 014.679.9 9.4 9.4 0 013.415 2.218 9.459 9.459 0 012.222 3.415 14.237 14.237 0 01.9 4.679c.091 2.054.116 2.708.116 7.944s-.019 5.89-.116 7.944a14.247 14.247 0 01-.9 4.679 9.839 9.839 0 01-5.632 5.637 14.237 14.237 0 01-4.679.9c-2.054.091-2.708.116-7.944.116s-5.89-.019-7.944-.116a14.247 14.247 0 01-4.679-.9 9.839 9.839 0 01-5.642-5.632 14.187 14.187 0 01-.9-4.679c-.087-2.06-.112-2.713-.112-7.949s.019-5.89.116-7.944a14.187 14.187 0 01.9-4.679 9.4 9.4 0 012.218-3.415 9.437 9.437 0 013.415-2.222 14.187 14.187 0 014.679-.9c2.054-.087 2.708-.112 7.944-.112zm0 9.636a9.636 9.636 0 109.636 9.636 9.636 9.636 0 00-9.636-9.636zm12.528-.482a2.409 2.409 0 10-2.409 2.409 2.409 2.409 0 002.409-2.409zm-12.528 4.336a5.782 5.782 0 11-5.782 5.782 5.782 5.782 0 015.782-5.782z" fill="#2b2b2b"/></svg>