<svg xmlns="http://www.w3.org/2000/svg" width="44.05" height="44.05"><path d="M0 0h44.05v44.05H0z" fill="none"/><path d="M34.255 19.896a.965.965 0 01-.965.964h-2.684v1.722h2.683a.964.964 0 110 1.925h-3.647a.965.965 0 01-.958-.962v-7.296a.967.967 0 01.964-.964h3.649a.964.964 0 11-.006 1.927h-2.683v1.722h2.683a.966.966 0 01.965.964zm-7.522 4.561a.987.987 0 01-.3.046.945.945 0 01-.78-.382l-3.742-5.072v4.5a.964.964 0 01-1.922 0v-7.3a.958.958 0 01.954-.96.988.988 0 01.756.387l3.772 5.092v-4.519a.964.964 0 111.927 0v7.3a.962.962 0 01-.661.912zm-9.085.05a.965.965 0 01-.96-.962v-7.296a.963.963 0 111.925 0v7.3a.967.967 0 01-.965.958zm-2.808 0h-3.647a.969.969 0 01-.964-.962v-7.296a.967.967 0 011.927 0v6.332h2.687a.964.964 0 010 1.927zm7.185-19.786c-10.118 0-18.354 6.686-18.354 14.9 0 7.36 6.53 13.528 15.35 14.696.6.125 1.411.395 1.617.9a3.74 3.74 0 01.059 1.652l-.251 1.56c-.068.459-.367 1.813 1.6.986s10.582-6.234 14.437-10.666a13.2 13.2 0 003.9-9.129c0-8.214-8.237-14.9-18.354-14.9z" fill="#2b2b2b"/></svg>