<svg xmlns="http://www.w3.org/2000/svg" width="61.097" height="57.131"><path d="M53.644 19.855a1.951 1.951 0 01-.918.463 1.968 1.968 0 01-2.321-1.532L47.193 3.172a1.965 1.965 0 011.53-2.32 1.966 1.966 0 012.32 1.53l3.212 15.616a1.966 1.966 0 01-.611 1.857zM19.238 50.513a1.966 1.966 0 01-1.931.408L2.162 45.935a1.965 1.965 0 01-1.253-2.482A1.966 1.966 0 013.39 42.2l15.146 4.986a1.967 1.967 0 011.254 2.483 1.961 1.961 0 01-.552.844zM31.81 29.987l-.008.007a1.966 1.966 0 01-2.777-.16L18.39 17.897a1.966 1.966 0 01.153-2.769l.007-.006a1.966 1.966 0 012.776.16L31.96 27.217a1.966 1.966 0 01-.152 2.769z" fill="#f08f36"/></svg>