<svg xmlns="http://www.w3.org/2000/svg" width="173" height="70"><defs><style>.b{fill:#2b2b2b}</style></defs><path d="M30.639 8.085s7.44-5.314 40.973-7.089c0 0 50.925-3.8 69.278 3.433 0 0 15.348 1.125 29.906 15.513 0 0 5.726 10.8-9.816 22.624a89.934 89.934 0 01-45.122 13.5L93.73 57.519 80.705 67.73l2.862-9.677s-28.442.738-37.643-.744c0 0-33.921-1.7-40.075-15.631 0 0-16.03-16.694 14.6-30.092.001.001 7.212-3.918 10.19-3.501z" fill="#f4f2f0"/><path class="b" d="M35.475 26.53v-1.422h11.016v1.422h-4.482v-1.026h-2.142v1.026zm13.482 7.524v-1.856h-7.11a6.111 6.111 0 00.144-1.134h4.914v-1.726h-4.9v-1.08h5.256V27.07h1.44v-3.834h-6.584V21.67h-2.2v1.566h-6.57v3.834h1.6v1.188h4.914v1.08h-4.624v1.728h4.608a8.25 8.25 0 01-.18 1.134h-6.458v1.854h5.418c-.99 1.062-2.718 2-5.742 2.682a8.735 8.735 0 011.332 1.728c3.672-.99 5.67-2.412 6.732-4.014 1.422 2.232 3.564 3.51 6.984 4.05a8.328 8.328 0 011.26-1.872c-2.844-.306-4.86-1.134-6.138-2.574zM57.399 34a8.286 8.286 0 01-1.98 2.952 16.2 16.2 0 011.62.99 11.144 11.144 0 002.198-3.474zm8.784-.594v-1.728h-9.288v1.728h3.636v3.042c0 .18-.072.216-.288.234-.2 0-.918 0-1.584-.018a6.933 6.933 0 01.648 1.8 5.873 5.873 0 002.466-.324c.612-.288.774-.756.774-1.656v-3.078zm-2.808 1.332a15.307 15.307 0 012.106 3.168l1.728-.936a15.879 15.879 0 00-2.214-3.06zm-4-5.868a12.47 12.47 0 002.16-4.41 13.706 13.706 0 002.214 4.41zm-3.726.864a7.9 7.9 0 00-.684-1.512c.108-.4.234-.828.36-1.3a6.358 6.358 0 01.774.7c.144-.126.288-.27.45-.414a9.631 9.631 0 011.1.936 7.182 7.182 0 01-1.996 1.59zm-2.466-5.4h.99c-.216 1.26-.522 2.916-.81 4.068a6.419 6.419 0 01.918 3.474 2.064 2.064 0 01-.216 1.152.558.558 0 01-.4.162 4.722 4.722 0 01-.486-.018zm5.2 2.862a8.169 8.169 0 00-1.116-.828 6.4 6.4 0 00.414-.558 9.351 9.351 0 011.08.792 4.135 4.135 0 01-.372.596zm1.332-2.736q-.162.513-.378 1.026a11.865 11.865 0 00-1.062-.648l.216-.378zm6.372-1.638l-.342.108h-2.376v1.512h1.6a10.66 10.66 0 01-.81 1.71 14.925 14.925 0 01-1.512-4.176l-1.674.324c.072.306.126.612.216.9l-.558-.2-.324.054h-1.18a9.565 9.565 0 00.36-1.008l-1.638-.342a10.351 10.351 0 01-2.232 4.05c.234-.918.45-1.854.648-2.682l-1.3-.72-.27.072h-3.358v16.04h1.854v-5.22a4.3 4.3 0 01.32 1.654 4.88 4.88 0 00.918-.036 1.658 1.658 0 00.882-.4c.486-.36.7-1.152.7-2.322a7.7 7.7 0 00-.306-2.214 6.862 6.862 0 01.972 1.278 9.86 9.86 0 001.854-1.4v.774h5.886v-.97a8.718 8.718 0 002 1.512 7.288 7.288 0 011.26-1.584 7.47 7.47 0 01-2.5-1.926 14.28 14.28 0 002.07-4.122zm6.864 10.836c-.666 0-1.386-.882-1.386-2.682a5.589 5.589 0 014.518-5.166 28.612 28.612 0 01-.954 4.32c-.72 2.412-1.44 3.528-2.178 3.528zm4.896 3.978c4.5-.684 6.8-3.348 6.8-7.092a6.8 6.8 0 00-7.2-6.966 7.949 7.949 0 00-8.208 7.632c0 3.006 1.674 5.184 3.636 5.184 1.944 0 3.492-2.2 4.554-5.8a38.738 38.738 0 001.062-4.842 4.412 4.412 0 013.73 4.72 4.826 4.826 0 01-4.05 4.77c-.468.108-.972.2-1.656.288zm20.538-12.638h-6.7v-1.08h6.7zm0 2.574h-6.7v-1.074h6.7zm0 2.592h-6.7v-1.08h6.7zm2.214-7.866H89.583v9.486h11.016zm2.448 12.3v-1.98h-16v1.98h5.182a23.4 23.4 0 01-5.382 2.21 17.571 17.571 0 011.476 1.638 30.066 30.066 0 005.8-2.43l-1.84-1.418zm-7.074 1.508a34.988 34.988 0 015.164 2.358l2.162-1.458a58.661 58.661 0 00-5.67-2.322zm12.078-14.382a18.956 18.956 0 01-3.726 6.732 12.83 12.83 0 011.188 2.232c.36-.432.738-.918 1.1-1.4v9.14h2.034V25.81a31.523 31.523 0 001.44-3.474zm8.262 11.808v-4.7a26.328 26.328 0 002.214 4.7zm-4.284 0a23.39 23.39 0 002.2-4.572v4.572zm9.252-6.642v-2.034h-4.968v-3.114h-2.088v3.114h-4.554v2.034h3.546a18.406 18.406 0 01-4.48 7.308 8.725 8.725 0 011.53 1.62 13.327 13.327 0 001.6-2.034v1.656h2.358v2.9h2.088v-2.9h2.412v-1.584a16.5 16.5 0 001.44 1.908 8.762 8.762 0 011.6-1.656 19.446 19.446 0 01-4.392-7.218zm5.112-.992c.468-1.026.9-2.07 1.26-3.114v1.53h1.184c-.36 2.466-1.08 5.274-2.448 7zm5.144 2.216a22.275 22.275 0 01-.612 2.754 14.435 14.435 0 00-1.488-1.188c.2-.5.378-1.026.558-1.566zm4.252 6.084V23.722h-1.764v-1.278h-6.246l.054-.18-1.98-.594a19.82 19.82 0 01-3.564 6.928 14.89 14.89 0 011.026 2.3 14.36 14.36 0 001.116-1.47v9.018h1.962v-7a10.953 10.953 0 011.188 1.44 8.333 8.333 0 001.044-1.512 12.5 12.5 0 011.566 1.474 9.338 9.338 0 01-3.154 3.978 7.465 7.465 0 011.332 1.638c2.754-2.016 4.644-6.084 5.292-11.9l-1.242-.378-.342.072h-1.6c.144-.648.27-1.314.4-1.944h3.024v9.884zm1.134-12.2v14.018c0 .306-.108.378-.4.4-.324.018-1.242.018-2.214-.036a8.077 8.077 0 01.648 2.106 7.139 7.139 0 003.08-.418c.666-.342.864-.9.864-2.034V21.998z"/><path class="b" d="M170.755 29.136a14.765 14.765 0 01-1.575 4.282 25.768 25.768 0 01-6.686 7.459 42.895 42.895 0 01-2.161 1.595l-1.147.746c-.383.249-.789.479-1.18.718a52.315 52.315 0 01-5 2.594 62.078 62.078 0 01-5.405 2.1l-1.4.453-1.432.421c-.958.278-1.911.565-2.884.812-1.931.526-3.889 1-5.855 1.443-.992.208-1.972.438-2.96.653l-2.977.609q-5.962 1.2-12.075 2c-7.385.948-14.875 1.443-22.382 1.661a.6.6 0 00-.089-.991 1.291 1.291 0 00-1.428.026l-.086.068a93.128 93.128 0 00-3.925 3.156c-.634.538-1.285 1.068-1.886 1.628s-1.147 1.157-1.75 1.717a15.6 15.6 0 01-1.915 1.607l-1.038.753-1.071.73-.014.01a27.337 27.337 0 00.552-2.958 21.134 21.134 0 01.756-3.5 16.681 16.681 0 011.4-3.383.749.749 0 00.08-.212c.1-.484-.366-.933-1.032-1a1.208 1.208 0 00-1.374.751l-.01.041a22.449 22.449 0 01-.555 2.179c-8.266.014-16.5.111-24.712-.221-8.227-.3-16.538-.6-24.588-2.033a63.123 63.123 0 01-11.566-3.07 39.788 39.788 0 01-9.692-5.4 25.113 25.113 0 01-6.579-7.356c-.185-.34-.353-.685-.53-1.025l-.456-1.043-.4-1.054-.314-1.067a14.7 14.7 0 01-.436-4.346 13.931 13.931 0 01.948-4.314 14.464 14.464 0 012.428-3.98 23.008 23.008 0 013.787-3.4 41.287 41.287 0 014.644-2.828c.817-.433 1.661-.841 2.5-1.25.413-.213.844-.408 1.27-.606s.855-.4 1.294-.585c1.749-.751 3.505-1.5 5.318-2.182 3.614-1.38 7.336-2.655 11.182-3.727a94.375 94.375 0 0111.834-2.584c4.046-.654 8.162-1.079 12.285-1.386s8.253-.533 12.36-.844c1.027-.064 2.054-.153 3.081-.24 1.027-.069 2.054-.146 3.079-.24l6.165-.54c2.06-.148 4.121-.328 6.189-.447 1.035-.063 2.069-.1 3.1-.149s2.071-.043 3.11-.066c4.146-.036 8.294.059 12.432.224 2.067.121 4.137.212 6.2.373l3.093.224 3.083.274a119 119 0 0112.079 1.642c.493.1.99.183 1.481.287s.984.207 1.476.308l1.479.3 1.459.343 1.473.32 1.453.364 1.456.361c.483.125.955.269 1.434.4.96.263 1.908.549 2.831.875s1.873.61 2.752 1c.889.37 1.8.708 2.653 1.121l1.3.6c.212.1.434.195.644.3l.623.325a46.4 46.4 0 014.775 2.769 34.535 34.535 0 014.133 3.236l.923.874c.149.146.317.288.453.44l.4.455.4.454.353.476.352.475c.113.16.2.329.309.491a11.9 11.9 0 011.681 4.135 11.479 11.479 0 01.01 4.37zm2.178-4.551a6.709 6.709 0 00-.2-1.2 8.641 8.641 0 00-.355-1.186 9.194 9.194 0 00-.482-1.162 9.369 9.369 0 00-.6-1.13 8.403 8.403 0 00-.35-.552l-.407-.529-.4-.528-.458-.5-.458-.5c-.155-.167-.331-.312-.5-.469l-1-.927a42.006 42.006 0 00-9.708-6.033 115.041 115.041 0 00-11.081-4.412c-.474-.168-.942-.346-1.422-.505l-1.445-.468-1.448-.468-1.471-.425-1.488-.4c-.5-.129-1.005-.231-1.509-.346s-1.01-.229-1.519-.332-1.025-.187-1.537-.28A100.365 100.365 0 00122.621.742l-3.127-.19-3.13-.143C114.277.3 112.186.262 110.097.19c-2.088-.035-4.174-.113-6.265-.133l-3.131-.029c-1.046-.02-2.09.013-3.134 0S95.476.006 94.432.015s-2.089.024-3.134.019c-2.091-.01-4.182.036-6.274.055l-3.138.08-1.569.04-1.566.064L75.613.4q-1.567.074-3.131.186c-2.089.124-4.167.318-6.25.483-1.043.085-2.08.2-3.118.295s-2.081.191-3.116.316c-2.072.234-4.147.456-6.208.733-1.034.136-2.069.258-3.1.4l-3.089.446c-4.14.588-8.265 1.391-12.288 2.36a100.582 100.582 0 00-11.765 3.588 50.918 50.918 0 00-10.623 5.246 40.635 40.635 0 00-4.483 3.386 34.081 34.081 0 00-3.789 3.813l-.818 1.022-.735 1.061-.673 1.09-.583 1.107A16.054 16.054 0 00.238 30.59L.073 31.8l-.066 1.222c0 .407.034.815.063 1.224l.18 1.22c.089.4.2.8.312 1.2.138.4.267.793.414 1.188.166.389.342.778.527 1.162.2.38.4.761.617 1.137a25.126 25.126 0 007.592 7.854 44.359 44.359 0 0010.709 5.332 54.2 54.2 0 005.959 1.769l.763.184.765.158 1.523.316c1.012.227 2.034.413 3.053.612a178.466 178.466 0 0024.9 2.85c4.192.16 8.388.189 12.578.146 2.095-.022 4.188-.074 6.28-.136l3.132-.144 2.36-.132c-.153.447-.331.89-.5 1.334-.206.569-.44 1.133-.678 1.7-.463 1.127-.952 2.251-1.36 3.389a31.24 31.24 0 00-.6 1.709l-.335 1c-.069.046-.138.091-.2.136l.142.053-.175.52v.013a.819.819 0 00.415.949 1.682 1.682 0 001.862-.092l.48-.4.151.058.137-.3 1.151-.964 1.877-1.634c1.248-1.091 2.523-2.165 3.693-3.306a42.813 42.813 0 013.711-3.294l.976-.792 1.01-.771c.076-.058.155-.115.231-.171 8.246-.044 16.512-.446 24.719-1.312 4.165-.428 8.318-.975 12.417-1.717l3.052-.619a97.411 97.411 0 003.021-.7c2-.5 3.985-1.029 5.94-1.611.987-.278 1.942-.608 2.905-.922l1.446-.478 1.44-.521q2.859-1.076 5.511-2.39a48.676 48.676 0 009.51-6.187c.357-.287.689-.59 1.021-.892s.667-.6.976-.918.644-.619.931-.944.617-.633.9-.961a24.084 24.084 0 003.009-4.109 18.351 18.351 0 001.978-4.471 12.18 12.18 0 00.454-4.762z"/></svg>