<svg xmlns="http://www.w3.org/2000/svg" width="44.05" height="44.05" viewBox="0 0 44.05 44.05"><defs><style>.a{fill:none;}.b{fill:#2b2b2b;}</style></defs><path class="a" d="M0,0H44.05V44.05H0Z"/><path class="b" d="M25.763,36.038V23.252h4.282l.641-4.97H25.763V15.11c0-1.439.4-2.421,2.463-2.421h2.632V8.244a35.223,35.223,0,0,0-3.836-.2c-3.794,0-6.391,2.316-6.391,6.571v3.664H16.34v4.97h4.291V36.038H4.835A1.835,1.835,0,0,1,3,34.2V4.835A1.835,1.835,0,0,1,4.835,3H34.2a1.835,1.835,0,0,1,1.835,1.835V34.2A1.835,1.835,0,0,1,34.2,36.038Z" transform="translate(2.506 2.506)"/></svg>