<svg xmlns="http://www.w3.org/2000/svg" width="44.05" height="44.05" viewBox="0 0 44.05 44.05"><defs><style>.a{fill:none;}.b{fill:#2b2b2b;}</style></defs><path class="a" d="M0,0H44.05V44.05H0Z"/><path class="b" d="M21.272,2c5.236,0,5.89.019,7.944.116a14.2,14.2,0,0,1,4.679.9A9.4,9.4,0,0,1,37.31,5.234a9.459,9.459,0,0,1,2.222,3.415,14.237,14.237,0,0,1,.9,4.679c.091,2.054.116,2.708.116,7.944s-.019,5.89-.116,7.944a14.247,14.247,0,0,1-.9,4.679A9.839,9.839,0,0,1,33.9,39.532a14.237,14.237,0,0,1-4.679.9c-2.054.091-2.708.116-7.944.116s-5.89-.019-7.944-.116a14.247,14.247,0,0,1-4.679-.9A9.839,9.839,0,0,1,3.012,33.9a14.187,14.187,0,0,1-.9-4.679C2.025,27.161,2,26.508,2,21.272s.019-5.89.116-7.944a14.187,14.187,0,0,1,.9-4.679A9.4,9.4,0,0,1,5.234,5.234,9.437,9.437,0,0,1,8.649,3.012a14.187,14.187,0,0,1,4.679-.9C15.382,2.025,16.036,2,21.272,2Zm0,9.636a9.636,9.636,0,1,0,9.636,9.636A9.636,9.636,0,0,0,21.272,11.636ZM33.8,11.154a2.409,2.409,0,1,0-2.409,2.409A2.409,2.409,0,0,0,33.8,11.154ZM21.272,15.49a5.782,5.782,0,1,1-5.782,5.782A5.782,5.782,0,0,1,21.272,15.49Z" transform="translate(0.753 0.753)"/></svg>