<svg xmlns="http://www.w3.org/2000/svg" width="44.05" height="44.05" viewBox="0 0 44.05 44.05"><defs><style>.a{fill:none;}.b{fill:#2b2b2b;}</style></defs><path class="a" d="M0,0H44.05V44.05H0Z"/><path class="b" d="M39.19,7.3a15.388,15.388,0,0,1-4.409,1.208A7.7,7.7,0,0,0,38.159,4.26a15.34,15.34,0,0,1-4.875,1.863,7.676,7.676,0,0,0-13.079,7A21.794,21.794,0,0,1,4.383,5.1,7.687,7.687,0,0,0,6.759,15.352a7.65,7.65,0,0,1-3.476-.96v.1a7.681,7.681,0,0,0,6.156,7.527,7.727,7.727,0,0,1-3.467.132,7.681,7.681,0,0,0,7.171,5.332A15.407,15.407,0,0,1,1.779,30.657a21.713,21.713,0,0,0,11.765,3.451c14.12,0,21.842-11.7,21.842-21.842,0-.33-.009-.664-.024-.991A15.594,15.594,0,0,0,39.192,7.3Z" transform="translate(1.486 3.081)"/></svg>