<svg xmlns="http://www.w3.org/2000/svg" width="44.05" height="44.05" viewBox="0 0 44.05 44.05"><defs><style>.a{fill:none;}.b{fill:#2b2b2b;}</style></defs><path class="a" d="M0,0H44.05V44.05H0Z"/><path class="b" d="M32.584,17.747a.965.965,0,0,1-.965.964H28.935v1.722h2.683a.964.964,0,1,1,0,1.925H27.971a.965.965,0,0,1-.958-.962V14.1a.967.967,0,0,1,.964-.964h3.649a.964.964,0,1,1-.006,1.927H28.937v1.722H31.62a.966.966,0,0,1,.965.964Zm-7.522,4.561a.987.987,0,0,1-.3.046.945.945,0,0,1-.78-.382L20.24,16.9v4.5a.964.964,0,0,1-1.922,0V14.1a.958.958,0,0,1,.954-.96.988.988,0,0,1,.756.387L23.8,18.619V14.1a.964.964,0,1,1,1.927,0v7.3a.962.962,0,0,1-.661.912Zm-9.085.05a.965.965,0,0,1-.96-.962V14.1a.963.963,0,1,1,1.925,0v7.3A.967.967,0,0,1,15.977,22.358Zm-2.808,0H9.522a.969.969,0,0,1-.964-.962V14.1a.967.967,0,0,1,1.927,0v6.332h2.687a.964.964,0,0,1,0,1.927ZM20.354,2.572C10.236,2.572,2,9.258,2,17.472,2,24.832,8.53,31,17.35,32.168c.6.125,1.411.395,1.617.9a3.74,3.74,0,0,1,.059,1.652l-.251,1.56c-.068.459-.367,1.813,1.6.986S30.957,31.032,34.812,26.6a13.2,13.2,0,0,0,3.9-9.129c0-8.214-8.237-14.9-18.354-14.9Z" transform="translate(1.671 2.149)"/></svg>