<svg xmlns="http://www.w3.org/2000/svg" width="38" height="55" viewBox="0 0 38 55"><defs><style>.a{fill:#f08f36;}</style></defs><g transform="translate(-695.261 -4740.3)"><g transform="translate(695.261 4756.109)"><path class="a" d="M4276.857,440.44a.906.906,0,0,1,.709-.891c1.048-.219,1.591-1.006,2.052-2.063a21.167,21.167,0,0,1,6.981-8.12c2.351-1.736,2.94-3.372,3.053-6,.064-1.526.3-2.737,1.964-3.079s2.429.409,3.049,2.237c.914,2.7.421,4.575-.742,7.091-.592,1.281-1.178,2.571-1.677,3.892-.284.747-.2,1.05-.063,1.284.385.691,1.572.517,4.558.441a18.759,18.759,0,0,1,4.392.2c2.15.414,2.75,1.059,2.907,1.242a4.185,4.185,0,0,1,.856,2.988,10.559,10.559,0,0,1-1.01,2.842c1.781,2.924,1.738,3.894-.613,5.869,1.548,2.182,1.152,4.007-.942,5.6a1.256,1.256,0,0,0-.333.813c-.308,3.49-1.279,4.174-4.884,4.461-6.8.2-6.8.392-16.187-.61-.866-.092-2.257-.246-3.148-.345a.986.986,0,0,1-.864-.968c-.021-.995-.052-2.6-.054-3.536-.011-4.425-.005-8.849,0-13.344Z" transform="translate(-4268.61 -420.21)"/><path class="a" d="M3994.106,1116.284h-5.526a.842.842,0,0,1-.842-.842v-17.323a.842.842,0,0,1,.842-.842h5.526a.843.843,0,0,1,.842.842v17.323a.843.843,0,0,1-.842.842Z" transform="translate(-3987.739 -1077.967)"/></g><g transform="translate(700.77 4740.3)"><path class="a" d="M-579.215,4526.2a.965.965,0,0,1-.49-.133.971.971,0,0,1-.346-1.328l3.976-6.784a.969.969,0,0,1,1.327-.346.969.969,0,0,1,.346,1.327l-3.977,6.785A.97.97,0,0,1-579.215,4526.2Z" transform="translate(606.759 -4512.909)"/><path class="a" d="M-767.122,4525.1a.97.97,0,0,1-.843-.487l-3.906-6.827a.97.97,0,0,1,.36-1.324.969.969,0,0,1,1.323.36l3.906,6.827a.97.97,0,0,1-.36,1.324A.969.969,0,0,1-767.122,4525.1Z" transform="translate(771.999 -4511.926)"/><path class="a" d="M-660.9,4494.368h-.005a.969.969,0,0,1-.965-.974l.041-7.886a.97.97,0,0,1,.97-.965h.005a.97.97,0,0,1,.965.975l-.041,7.887A.97.97,0,0,1-660.9,4494.368Z" transform="translate(677.125 -4484.543)"/></g></g></svg>