<svg xmlns="http://www.w3.org/2000/svg" width="173" height="70" viewBox="0 0 173 70"><defs><style>.a{fill:#f4f2f0;}.b{fill:#2b2b2b;}</style></defs><g transform="translate(-612 -4792.17)"><path class="a" d="M6204.934,3938.862s7.44-5.314,40.973-7.089c0,0,50.925-3.8,69.278,3.433,0,0,15.348,1.125,29.906,15.513,0,0,5.726,10.8-9.816,22.624a89.934,89.934,0,0,1-45.122,13.5l-22.128,1.453L6255,3998.507l2.862-9.677s-28.442.738-37.643-.744c0,0-33.921-1.7-40.075-15.631,0,0-16.03-16.694,14.6-30.092C6194.745,3942.364,6201.956,3938.445,6204.934,3938.862Z" transform="translate(-5562.295 861.393)"/><path class="b" d="M-50.562-10.368V-11.79h11.016v1.422h-4.482v-1.026H-46.17v1.026ZM-37.08-2.844V-4.7h-7.11a6.111,6.111,0,0,0,.144-1.134h4.914V-7.56h-4.9V-8.64h5.256V-9.828h1.44v-3.834H-43.92v-1.566h-2.2v1.566h-6.57v3.834h1.6V-8.64h4.914v1.08H-50.8v1.728h4.608a8.25,8.25,0,0,1-.18,1.134H-52.83v1.854h5.418c-.99,1.062-2.718,2-5.742,2.682a8.735,8.735,0,0,1,1.332,1.728c3.672-.99,5.67-2.412,6.732-4.014,1.422,2.232,3.564,3.51,6.984,4.05A8.328,8.328,0,0,1-36.846-.27c-2.844-.306-4.86-1.134-6.138-2.574Zm8.442-.054A8.286,8.286,0,0,1-30.618.054a16.2,16.2,0,0,1,1.62.99A11.144,11.144,0,0,0-26.8-2.43Zm8.784-.594V-5.22h-9.288v1.728h3.636V-.45c0,.18-.072.216-.288.234-.2,0-.918,0-1.584-.018a6.933,6.933,0,0,1,.648,1.8,5.873,5.873,0,0,0,2.466-.324c.612-.288.774-.756.774-1.656V-3.492ZM-22.662-2.16a15.307,15.307,0,0,1,2.106,3.168l1.728-.936a15.879,15.879,0,0,0-2.214-3.06Zm-4-5.868a12.47,12.47,0,0,0,2.16-4.41,13.706,13.706,0,0,0,2.214,4.41Zm-3.726.864a7.9,7.9,0,0,0-.684-1.512c.108-.4.234-.828.36-1.3a6.358,6.358,0,0,1,.774.7c.144-.126.288-.27.45-.414a9.631,9.631,0,0,1,1.1.936A7.182,7.182,0,0,1-30.384-7.164Zm-2.466-5.4h.99c-.216,1.26-.522,2.916-.81,4.068a6.419,6.419,0,0,1,.918,3.474,2.064,2.064,0,0,1-.216,1.152.558.558,0,0,1-.4.162,4.722,4.722,0,0,1-.486-.018Zm5.2,2.862a8.169,8.169,0,0,0-1.116-.828,6.4,6.4,0,0,0,.414-.558,9.351,9.351,0,0,1,1.08.792A4.135,4.135,0,0,1-27.648-9.7Zm1.332-2.736q-.162.513-.378,1.026a11.865,11.865,0,0,0-1.062-.648l.216-.378Zm6.372-1.638-.342.108h-2.376v1.512h1.6a10.66,10.66,0,0,1-.81,1.71,14.925,14.925,0,0,1-1.512-4.176l-1.674.324c.072.306.126.612.216.9l-.558-.2-.324.054H-26.91a9.565,9.565,0,0,0,.36-1.008l-1.638-.342a10.351,10.351,0,0,1-2.232,4.05c.234-.918.45-1.854.648-2.682l-1.3-.72-.27.072H-34.7V1.566h1.854v-5.22A4.3,4.3,0,0,1-32.526-2a4.88,4.88,0,0,0,.918-.036,1.658,1.658,0,0,0,.882-.4c.486-.36.7-1.152.7-2.322a7.7,7.7,0,0,0-.306-2.214,6.862,6.862,0,0,1,.972,1.278,9.86,9.86,0,0,0,1.854-1.4v.774h5.886V-7.29a8.718,8.718,0,0,0,2,1.512,7.288,7.288,0,0,1,1.26-1.584,7.47,7.47,0,0,1-2.5-1.926,14.28,14.28,0,0,0,2.07-4.122ZM-13.086-3.24c-.666,0-1.386-.882-1.386-2.682a5.589,5.589,0,0,1,4.518-5.166,28.612,28.612,0,0,1-.954,4.32C-11.628-4.356-12.348-3.24-13.086-3.24ZM-8.19.738c4.5-.684,6.8-3.348,6.8-7.092a6.8,6.8,0,0,0-7.2-6.966,7.949,7.949,0,0,0-8.208,7.632c0,3.006,1.674,5.184,3.636,5.184,1.944,0,3.492-2.2,4.554-5.8a38.738,38.738,0,0,0,1.062-4.842A4.412,4.412,0,0,1-3.816-6.426a4.826,4.826,0,0,1-4.05,4.77c-.468.108-.972.2-1.656.288ZM12.348-11.9h-6.7v-1.08h6.7Zm0,2.574h-6.7V-10.4h6.7Zm0,2.592h-6.7v-1.08h6.7ZM14.562-14.6H3.546v9.486H14.562ZM17.01-2.3v-1.98h-16V-2.3H6.192A23.4,23.4,0,0,1,.81-.09,17.571,17.571,0,0,1,2.286,1.548a30.066,30.066,0,0,0,5.8-2.43L6.246-2.3ZM9.936-.792A34.988,34.988,0,0,1,15.1,1.566L17.262.108a58.661,58.661,0,0,0-5.67-2.322ZM22.014-15.174a18.956,18.956,0,0,1-3.726,6.732A12.83,12.83,0,0,1,19.476-6.21c.36-.432.738-.918,1.1-1.4V1.53h2.034V-11.088a31.523,31.523,0,0,0,1.44-3.474ZM30.276-3.366v-4.7a26.328,26.328,0,0,0,2.214,4.7Zm-4.284,0a23.39,23.39,0,0,0,2.2-4.572v4.572Zm9.252-6.642v-2.034H30.276v-3.114H28.188v3.114H23.634v2.034H27.18A18.406,18.406,0,0,1,22.7-2.7a8.725,8.725,0,0,1,1.53,1.62,13.327,13.327,0,0,0,1.6-2.034v1.656h2.358v2.9h2.088v-2.9h2.412V-3.042a16.5,16.5,0,0,0,1.44,1.908,8.762,8.762,0,0,1,1.6-1.656,19.446,19.446,0,0,1-4.392-7.218ZM40.356-11c.468-1.026.9-2.07,1.26-3.114v1.53H42.8c-.36,2.466-1.08,5.274-2.448,7ZM45.5-8.784a22.275,22.275,0,0,1-.612,2.754A14.435,14.435,0,0,0,43.4-7.218c.2-.5.378-1.026.558-1.566ZM49.752-2.7V-13.176H47.988v-1.278H41.742l.054-.18-1.98-.594A19.82,19.82,0,0,1,36.252-8.3a14.89,14.89,0,0,1,1.026,2.3A14.36,14.36,0,0,0,38.394-7.47V1.548h1.962v-7a10.953,10.953,0,0,1,1.188,1.44,8.333,8.333,0,0,0,1.044-1.512A12.5,12.5,0,0,1,44.154-4.05,9.338,9.338,0,0,1,41-.072a7.465,7.465,0,0,1,1.332,1.638c2.754-2.016,4.644-6.084,5.292-11.9l-1.242-.378-.342.072h-1.6c.144-.648.27-1.314.4-1.944h3.024V-2.7Zm1.134-12.2V-.882c0,.306-.108.378-.4.4-.324.018-1.242.018-2.214-.036a8.077,8.077,0,0,1,.648,2.106A7.139,7.139,0,0,0,52,1.17c.666-.342.864-.9.864-2.034V-14.9Z" transform="translate(698.037 4829.068)"/><path class="b" d="M6337.287,3953.544a14.765,14.765,0,0,1-1.575,4.282,25.768,25.768,0,0,1-6.686,7.459c-.689.554-1.425,1.076-2.161,1.595l-1.147.746c-.383.249-.789.479-1.18.718a52.315,52.315,0,0,1-5,2.594c-1.745.778-3.555,1.475-5.405,2.1l-1.4.453-1.432.421c-.958.278-1.911.565-2.884.812-1.931.526-3.889,1-5.855,1.443-.992.208-1.972.438-2.96.653l-2.977.609q-5.962,1.2-12.075,2c-7.385.948-14.875,1.443-22.382,1.661a.6.6,0,0,0-.089-.991,1.291,1.291,0,0,0-1.428.026l-.086.068c-1.343,1.029-2.661,2.074-3.925,3.156-.634.538-1.285,1.068-1.886,1.628s-1.147,1.157-1.75,1.717a15.6,15.6,0,0,1-1.915,1.607l-1.038.753-1.071.73-.014.01a27.337,27.337,0,0,0,.552-2.958,21.134,21.134,0,0,1,.756-3.5,16.681,16.681,0,0,1,1.4-3.383.749.749,0,0,0,.08-.212c.1-.484-.366-.933-1.032-1a1.208,1.208,0,0,0-1.374.751l-.01.041a22.449,22.449,0,0,1-.555,2.179c-8.266.014-16.5.111-24.712-.221-8.227-.3-16.538-.6-24.588-2.033a63.123,63.123,0,0,1-11.566-3.07,39.788,39.788,0,0,1-9.692-5.4,25.113,25.113,0,0,1-6.579-7.356c-.185-.34-.353-.685-.53-1.025l-.456-1.043-.4-1.054-.314-1.067a14.7,14.7,0,0,1-.436-4.346,13.931,13.931,0,0,1,.948-4.314,14.464,14.464,0,0,1,2.428-3.98,23.008,23.008,0,0,1,3.787-3.4,41.287,41.287,0,0,1,4.644-2.828c.817-.433,1.661-.841,2.5-1.25.413-.213.844-.408,1.27-.606s.855-.4,1.294-.585c1.749-.751,3.505-1.5,5.318-2.182,3.614-1.38,7.336-2.655,11.182-3.727a94.375,94.375,0,0,1,11.834-2.584c4.046-.654,8.162-1.079,12.285-1.386s8.253-.533,12.36-.844c1.027-.064,2.054-.153,3.081-.24,1.027-.069,2.054-.146,3.079-.24l6.165-.54c2.06-.148,4.121-.328,6.189-.447,1.035-.063,2.069-.1,3.1-.149s2.071-.043,3.11-.066c4.146-.036,8.294.059,12.432.224,2.067.121,4.137.212,6.2.373l3.093.224,3.083.274a119,119,0,0,1,12.079,1.642c.493.1.99.183,1.481.287s.984.207,1.476.308l1.479.3,1.459.343,1.473.32,1.453.364,1.456.361c.483.125.955.269,1.434.4.96.263,1.908.549,2.831.875s1.873.61,2.752,1c.889.37,1.8.708,2.653,1.121l1.3.6c.212.1.434.195.644.3l.623.325a46.4,46.4,0,0,1,4.775,2.769,34.535,34.535,0,0,1,4.133,3.236l.923.874c.149.146.317.288.453.44l.4.455.4.454.353.476.352.475c.113.16.2.329.309.491a11.9,11.9,0,0,1,1.681,4.135,11.479,11.479,0,0,1,.01,4.37Zm2.178-4.551a6.709,6.709,0,0,0-.2-1.2,8.641,8.641,0,0,0-.355-1.186,9.194,9.194,0,0,0-.482-1.162,9.369,9.369,0,0,0-.6-1.13c-.109-.187-.226-.373-.35-.552l-.407-.529-.4-.528-.458-.5-.458-.5c-.155-.167-.331-.312-.5-.469l-1-.927a42.006,42.006,0,0,0-9.708-6.033,115.041,115.041,0,0,0-11.081-4.412c-.474-.168-.942-.346-1.422-.505l-1.445-.468-1.448-.468-1.471-.425-1.488-.4c-.5-.129-1.005-.231-1.509-.346s-1.01-.229-1.519-.332-1.025-.187-1.537-.28a100.365,100.365,0,0,0-12.474-1.491l-3.127-.19-3.13-.143c-2.087-.109-4.178-.147-6.267-.219-2.088-.035-4.174-.113-6.265-.133l-3.131-.029c-1.046-.02-2.09.013-3.134,0s-2.091-.022-3.135-.013-2.089.024-3.134.019c-2.091-.01-4.182.036-6.274.055l-3.138.08-1.569.04-1.566.064-3.138.127q-1.567.074-3.131.186c-2.089.124-4.167.318-6.25.483-1.043.085-2.08.2-3.118.295s-2.081.191-3.116.316c-2.072.234-4.147.456-6.208.733-1.034.136-2.069.258-3.1.4l-3.089.446c-4.14.588-8.265,1.391-12.288,2.36a100.582,100.582,0,0,0-11.765,3.588,50.918,50.918,0,0,0-10.623,5.246,40.635,40.635,0,0,0-4.483,3.386,34.081,34.081,0,0,0-3.789,3.813l-.818,1.022-.735,1.061-.673,1.09-.583,1.107a16.054,16.054,0,0,0-1.606,4.658l-.165,1.21-.066,1.222c0,.407.034.815.063,1.224l.18,1.22c.089.4.2.8.312,1.2.138.4.267.793.414,1.188.166.389.342.778.527,1.162.2.38.4.761.617,1.137a25.126,25.126,0,0,0,7.592,7.854,44.359,44.359,0,0,0,10.709,5.332,54.2,54.2,0,0,0,5.959,1.769l.763.184.765.158,1.523.316c1.012.227,2.034.413,3.053.612a178.466,178.466,0,0,0,24.9,2.85c4.192.16,8.388.189,12.578.146,2.095-.022,4.188-.074,6.28-.136l3.132-.144,2.36-.132c-.153.447-.331.89-.5,1.334-.206.569-.44,1.133-.678,1.7-.463,1.127-.952,2.251-1.36,3.389-.221.566-.414,1.137-.6,1.709l-.335,1c-.069.046-.138.091-.2.136l.142.053-.175.52,0,.013a.819.819,0,0,0,.415.949,1.682,1.682,0,0,0,1.862-.092l.48-.4.151.058c.046-.1.091-.2.137-.3l1.151-.964,1.877-1.634c1.248-1.091,2.523-2.165,3.693-3.306a42.813,42.813,0,0,1,3.711-3.294l.976-.792,1.01-.771c.076-.058.155-.115.231-.171,8.246-.044,16.512-.446,24.719-1.312,4.165-.428,8.318-.975,12.417-1.717l3.052-.619c1.014-.216,2.019-.453,3.021-.7,2-.5,3.985-1.029,5.94-1.611.987-.278,1.942-.608,2.905-.922l1.446-.478,1.44-.521q2.859-1.076,5.511-2.39a48.676,48.676,0,0,0,9.51-6.187c.357-.287.689-.59,1.021-.892s.667-.6.976-.918.644-.619.931-.944.617-.633.9-.961a24.084,24.084,0,0,0,3.009-4.109,18.351,18.351,0,0,0,1.978-4.471,12.18,12.18,0,0,0,.454-4.762Z" transform="translate(-5554.532 867.762)"/></g></svg>