<svg xmlns="http://www.w3.org/2000/svg" width="61.097" height="57.131" viewBox="0 0 61.097 57.131"><defs><style>.a{fill:#f08f36;}</style></defs><g transform="translate(-2433.055 -3811.991) rotate(-42)"><path class="a" d="M-578.219,4535.159a1.951,1.951,0,0,1-.992-.27,1.968,1.968,0,0,1-.7-2.692l8.061-13.753a1.965,1.965,0,0,1,2.69-.7,1.966,1.966,0,0,1,.7,2.69l-8.062,13.754A1.966,1.966,0,0,1-578.219,4535.159Z" transform="translate(-137.809 -23.616)"/><path class="a" d="M-762.111,4534.1a1.966,1.966,0,0,1-1.708-.989l-7.919-13.839a1.965,1.965,0,0,1,.73-2.683,1.966,1.966,0,0,1,2.683.729l7.919,13.84a1.967,1.967,0,0,1-.73,2.684A1.961,1.961,0,0,1-762.111,4534.1Z" transform="translate(0 -22.796)"/><path class="a" d="M-659.9,4504.462h-.01a1.966,1.966,0,0,1-1.956-1.977l.082-15.987a1.966,1.966,0,0,1,1.966-1.955h.01a1.966,1.966,0,0,1,1.956,1.976l-.082,15.987A1.966,1.966,0,0,1-659.9,4504.462Z" transform="translate(-79.134)"/></g></svg>